<?xml version="1.0" encoding="UTF-8" standalone="no"?>
<svg xmlns="http://www.w3.org/2000/svg"
     xmlns:xlink="http://www.w3.org/1999/xlink"
     width="576px" height="432px" viewBox="0 0 576 432">
<title>gl2ps_renderer figure</title>
<desc>
Creator: GL2PS 1.4.0, (C) 1999-2017 C. Geuzaine
For: Octave
CreationDate: Wed Dec 11 18:26:15 2019
</desc>
<defs>
</defs>
<polygon fill="#ffffff" points="0,0 576,0 576,432 0,432"/>
<g>
<polygon fill="#ffffff" points="0,432 576,432 576,0 0,0" shape-rendering="crispEdges"/>
<clipPath id="cp00576432">
  <polygon points="0,432 576,432 576,0 0,0"/>
</clipPath>
<g clip-path="url(#cp00576432)">
<polygon fill="#ffffff" shape-rendering="crispEdges" points="74.88,384.48 521.28,384.48 74.88,32.4"/>
<polygon fill="#ffffff" shape-rendering="crispEdges" points="521.28,384.48 521.28,32.4 74.88,32.4"/>
<polyline fill="none" stroke="#262626" stroke-width="0.5" stroke-linecap="butt" stroke-linejoin="miter" stroke-opacity="0.15" stroke-dasharray="16,0" points="74.88,384.48 74.88,32.4"/>
<polyline fill="none" stroke="#262626" stroke-width="0.5" stroke-linecap="butt" stroke-linejoin="miter" stroke-opacity="0.15" stroke-dasharray="16,0" points="164.16,384.48 164.16,32.4"/>
<polyline fill="none" stroke="#262626" stroke-width="0.5" stroke-linecap="butt" stroke-linejoin="miter" stroke-opacity="0.15" stroke-dasharray="16,0" points="253.44,384.48 253.44,32.4"/>
<polyline fill="none" stroke="#262626" stroke-width="0.5" stroke-linecap="butt" stroke-linejoin="miter" stroke-opacity="0.15" stroke-dasharray="16,0" points="342.72,384.48 342.72,32.4"/>
<polyline fill="none" stroke="#262626" stroke-width="0.5" stroke-linecap="butt" stroke-linejoin="miter" stroke-opacity="0.15" stroke-dasharray="16,0" points="432,384.48 432,32.4"/>
<polyline fill="none" stroke="#262626" stroke-width="0.5" stroke-linecap="butt" stroke-linejoin="miter" stroke-opacity="0.15" stroke-dasharray="16,0" points="521.28,384.48 521.28,32.4"/>
<polyline fill="none" stroke="#262626" stroke-width="0.5" stroke-linecap="butt" stroke-linejoin="miter" points="74.88,384.48 74.88,380.015"/>
<polyline fill="none" stroke="#262626" stroke-width="0.5" stroke-linecap="butt" stroke-linejoin="miter" points="74.88,32.4 74.88,36.865"/>
<polyline fill="none" stroke="#262626" stroke-width="0.5" stroke-linecap="butt" stroke-linejoin="miter" points="164.16,384.48 164.16,380.015"/>
<polyline fill="none" stroke="#262626" stroke-width="0.5" stroke-linecap="butt" stroke-linejoin="miter" points="164.16,32.4 164.16,36.865"/>
<polyline fill="none" stroke="#262626" stroke-width="0.5" stroke-linecap="butt" stroke-linejoin="miter" points="253.44,384.48 253.44,380.015"/>
<polyline fill="none" stroke="#262626" stroke-width="0.5" stroke-linecap="butt" stroke-linejoin="miter" points="253.44,32.4 253.44,36.865"/>
<polyline fill="none" stroke="#262626" stroke-width="0.5" stroke-linecap="butt" stroke-linejoin="miter" points="342.72,384.48 342.72,380.015"/>
<polyline fill="none" stroke="#262626" stroke-width="0.5" stroke-linecap="butt" stroke-linejoin="miter" points="342.72,32.4 342.72,36.865"/>
<polyline fill="none" stroke="#262626" stroke-width="0.5" stroke-linecap="butt" stroke-linejoin="miter" points="432,384.48 432,380.015"/>
<polyline fill="none" stroke="#262626" stroke-width="0.5" stroke-linecap="butt" stroke-linejoin="miter" points="432,32.4 432,36.865"/>
<polyline fill="none" stroke="#262626" stroke-width="0.5" stroke-linecap="butt" stroke-linejoin="miter" points="521.28,384.48 521.28,380.015"/>
<polyline fill="none" stroke="#262626" stroke-width="0.5" stroke-linecap="butt" stroke-linejoin="miter" points="521.28,32.4 521.28,36.865"/>
<text fill="#262626" x="74.88" y="389.481" font-size="10" text-anchor="middle" dy="10" font-family="Helvetica">2</text>
<text fill="#262626" x="164.16" y="389.481" font-size="10" text-anchor="middle" dy="10" font-family="Helvetica">4</text>
<text fill="#262626" x="253.44" y="389.481" font-size="10" text-anchor="middle" dy="10" font-family="Helvetica">6</text>
<text fill="#262626" x="342.72" y="389.481" font-size="10" text-anchor="middle" dy="10" font-family="Helvetica">8</text>
<text fill="#262626" x="432" y="389.481" font-size="10" text-anchor="middle" dy="10" font-family="Helvetica">10</text>
<text fill="#262626" x="521.28" y="389.481" font-size="10" text-anchor="middle" dy="10" font-family="Helvetica">12</text>
<polyline fill="none" stroke="#191919" stroke-width="0.5" stroke-linecap="butt" stroke-linejoin="miter" stroke-opacity="0.25" stroke-dasharray="1,1,1,1,1,1,1,1,1,1" points="74.88,363.283 521.28,363.283"/>
<polyline fill="none" stroke="#191919" stroke-width="0.5" stroke-linecap="butt" stroke-linejoin="miter" stroke-opacity="0.25" stroke-dasharray="1,1,1,1,1,1,1,1,1,1" points="74.88,350.883 521.28,350.883"/>
<polyline fill="none" stroke="#191919" stroke-width="0.5" stroke-linecap="butt" stroke-linejoin="miter" stroke-opacity="0.25" stroke-dasharray="1,1,1,1,1,1,1,1,1,1" points="74.88,342.085 521.28,342.085"/>
<polyline fill="none" stroke="#191919" stroke-width="0.5" stroke-linecap="butt" stroke-linejoin="miter" stroke-opacity="0.25" stroke-dasharray="1,1,1,1,1,1,1,1,1,1" points="74.88,335.261 521.28,335.261"/>
<polyline fill="none" stroke="#191919" stroke-width="0.5" stroke-linecap="butt" stroke-linejoin="miter" stroke-opacity="0.25" stroke-dasharray="1,1,1,1,1,1,1,1,1,1" points="74.88,329.686 521.28,329.686"/>
<polyline fill="none" stroke="#191919" stroke-width="0.5" stroke-linecap="butt" stroke-linejoin="miter" stroke-opacity="0.25" stroke-dasharray="1,1,1,1,1,1,1,1,1,1" points="74.88,324.972 521.28,324.972"/>
<polyline fill="none" stroke="#191919" stroke-width="0.5" stroke-linecap="butt" stroke-linejoin="miter" stroke-opacity="0.25" stroke-dasharray="1,1,1,1,1,1,1,1,1,1" points="74.88,320.888 521.28,320.888"/>
<polyline fill="none" stroke="#191919" stroke-width="0.5" stroke-linecap="butt" stroke-linejoin="miter" stroke-opacity="0.25" stroke-dasharray="1,1,1,1,1,1,1,1,1,1" points="74.88,317.286 521.28,317.286"/>
<polyline fill="none" stroke="#191919" stroke-width="0.5" stroke-linecap="butt" stroke-linejoin="miter" stroke-opacity="0.25" stroke-dasharray="1,1,1,1,1,1,1,1,1,1" points="74.88,292.867 521.28,292.867"/>
<polyline fill="none" stroke="#191919" stroke-width="0.5" stroke-linecap="butt" stroke-linejoin="miter" stroke-opacity="0.25" stroke-dasharray="1,1,1,1,1,1,1,1,1,1" points="74.88,280.467 521.28,280.467"/>
<polyline fill="none" stroke="#191919" stroke-width="0.5" stroke-linecap="butt" stroke-linejoin="miter" stroke-opacity="0.25" stroke-dasharray="1,1,1,1,1,1,1,1,1,1" points="74.88,271.669 521.28,271.669"/>
<polyline fill="none" stroke="#191919" stroke-width="0.5" stroke-linecap="butt" stroke-linejoin="miter" stroke-opacity="0.25" stroke-dasharray="1,1,1,1,1,1,1,1,1,1" points="74.88,264.845 521.28,264.845"/>
<polyline fill="none" stroke="#191919" stroke-width="0.5" stroke-linecap="butt" stroke-linejoin="miter" stroke-opacity="0.25" stroke-dasharray="1,1,1,1,1,1,1,1,1,1" points="74.88,259.27 521.28,259.27"/>
<polyline fill="none" stroke="#191919" stroke-width="0.5" stroke-linecap="butt" stroke-linejoin="miter" stroke-opacity="0.25" stroke-dasharray="1,1,1,1,1,1,1,1,1,1" points="74.88,254.556 521.28,254.556"/>
<polyline fill="none" stroke="#191919" stroke-width="0.5" stroke-linecap="butt" stroke-linejoin="miter" stroke-opacity="0.25" stroke-dasharray="1,1,1,1,1,1,1,1,1,1" points="74.88,250.472 521.28,250.472"/>
<polyline fill="none" stroke="#191919" stroke-width="0.5" stroke-linecap="butt" stroke-linejoin="miter" stroke-opacity="0.25" stroke-dasharray="1,1,1,1,1,1,1,1,1,1" points="74.88,246.87 521.28,246.87"/>
<polyline fill="none" stroke="#191919" stroke-width="0.5" stroke-linecap="butt" stroke-linejoin="miter" stroke-opacity="0.25" stroke-dasharray="1,1,1,1,1,1,1,1,1,1" points="74.88,222.451 521.28,222.451"/>
<polyline fill="none" stroke="#191919" stroke-width="0.5" stroke-linecap="butt" stroke-linejoin="miter" stroke-opacity="0.25" stroke-dasharray="1,1,1,1,1,1,1,1,1,1" points="74.88,210.051 521.28,210.051"/>
<polyline fill="none" stroke="#191919" stroke-width="0.5" stroke-linecap="butt" stroke-linejoin="miter" stroke-opacity="0.25" stroke-dasharray="1,1,1,1,1,1,1,1,1,1" points="74.88,201.253 521.28,201.253"/>
<polyline fill="none" stroke="#191919" stroke-width="0.5" stroke-linecap="butt" stroke-linejoin="miter" stroke-opacity="0.25" stroke-dasharray="1,1,1,1,1,1,1,1,1,1" points="74.88,194.429 521.28,194.429"/>
<polyline fill="none" stroke="#191919" stroke-width="0.5" stroke-linecap="butt" stroke-linejoin="miter" stroke-opacity="0.25" stroke-dasharray="1,1,1,1,1,1,1,1,1,1" points="74.88,188.854 521.28,188.854"/>
<polyline fill="none" stroke="#191919" stroke-width="0.5" stroke-linecap="butt" stroke-linejoin="miter" stroke-opacity="0.25" stroke-dasharray="1,1,1,1,1,1,1,1,1,1" points="74.88,184.14 521.28,184.14"/>
<polyline fill="none" stroke="#191919" stroke-width="0.5" stroke-linecap="butt" stroke-linejoin="miter" stroke-opacity="0.25" stroke-dasharray="1,1,1,1,1,1,1,1,1,1" points="74.88,180.056 521.28,180.056"/>
<polyline fill="none" stroke="#191919" stroke-width="0.5" stroke-linecap="butt" stroke-linejoin="miter" stroke-opacity="0.25" stroke-dasharray="1,1,1,1,1,1,1,1,1,1" points="74.88,176.454 521.28,176.454"/>
<polyline fill="none" stroke="#191919" stroke-width="0.5" stroke-linecap="butt" stroke-linejoin="miter" stroke-opacity="0.25" stroke-dasharray="1,1,1,1,1,1,1,1,1,1" points="74.88,152.035 521.28,152.035"/>
<polyline fill="none" stroke="#191919" stroke-width="0.5" stroke-linecap="butt" stroke-linejoin="miter" stroke-opacity="0.25" stroke-dasharray="1,1,1,1,1,1,1,1,1,1" points="74.88,139.635 521.28,139.635"/>
<polyline fill="none" stroke="#191919" stroke-width="0.5" stroke-linecap="butt" stroke-linejoin="miter" stroke-opacity="0.25" stroke-dasharray="1,1,1,1,1,1,1,1,1,1" points="74.88,130.837 521.28,130.837"/>
<polyline fill="none" stroke="#191919" stroke-width="0.5" stroke-linecap="butt" stroke-linejoin="miter" stroke-opacity="0.25" stroke-dasharray="1,1,1,1,1,1,1,1,1,1" points="74.88,124.013 521.28,124.013"/>
<polyline fill="none" stroke="#191919" stroke-width="0.5" stroke-linecap="butt" stroke-linejoin="miter" stroke-opacity="0.25" stroke-dasharray="1,1,1,1,1,1,1,1,1,1" points="74.88,118.438 521.28,118.438"/>
<polyline fill="none" stroke="#191919" stroke-width="0.5" stroke-linecap="butt" stroke-linejoin="miter" stroke-opacity="0.25" stroke-dasharray="1,1,1,1,1,1,1,1,1,1" points="74.88,113.724 521.28,113.724"/>
<polyline fill="none" stroke="#191919" stroke-width="0.5" stroke-linecap="butt" stroke-linejoin="miter" stroke-opacity="0.25" stroke-dasharray="1,1,1,1,1,1,1,1,1,1" points="74.88,109.64 521.28,109.64"/>
<polyline fill="none" stroke="#191919" stroke-width="0.5" stroke-linecap="butt" stroke-linejoin="miter" stroke-opacity="0.25" stroke-dasharray="1,1,1,1,1,1,1,1,1,1" points="74.88,106.038 521.28,106.038"/>
<polyline fill="none" stroke="#191919" stroke-width="0.5" stroke-linecap="butt" stroke-linejoin="miter" stroke-opacity="0.25" stroke-dasharray="1,1,1,1,1,1,1,1,1,1" points="74.88,81.6187 521.28,81.6187"/>
<polyline fill="none" stroke="#191919" stroke-width="0.5" stroke-linecap="butt" stroke-linejoin="miter" stroke-opacity="0.25" stroke-dasharray="1,1,1,1,1,1,1,1,1,1" points="74.88,69.2191 521.28,69.2191"/>
<polyline fill="none" stroke="#191919" stroke-width="0.5" stroke-linecap="butt" stroke-linejoin="miter" stroke-opacity="0.25" stroke-dasharray="1,1,1,1,1,1,1,1,1,1" points="74.88,60.4214 521.28,60.4214"/>
<polyline fill="none" stroke="#191919" stroke-width="0.5" stroke-linecap="butt" stroke-linejoin="miter" stroke-opacity="0.25" stroke-dasharray="1,1,1,1,1,1,1,1,1,1" points="74.88,53.5974 521.28,53.5974"/>
<polyline fill="none" stroke="#191919" stroke-width="0.5" stroke-linecap="butt" stroke-linejoin="miter" stroke-opacity="0.25" stroke-dasharray="1,1,1,1,1,1,1,1,1,1" points="74.88,48.0217 521.28,48.0217"/>
<polyline fill="none" stroke="#191919" stroke-width="0.5" stroke-linecap="butt" stroke-linejoin="miter" stroke-opacity="0.25" stroke-dasharray="1,1,1,1,1,1,1,1,1,1" points="74.88,43.3076 521.28,43.3076"/>
<polyline fill="none" stroke="#191919" stroke-width="0.5" stroke-linecap="butt" stroke-linejoin="miter" stroke-opacity="0.25" stroke-dasharray="1,1,1,1,1,1,1,1,1,1" points="74.88,39.224 521.28,39.224"/>
<polyline fill="none" stroke="#191919" stroke-width="0.5" stroke-linecap="butt" stroke-linejoin="miter" stroke-opacity="0.25" stroke-dasharray="1,1,1,1,1,1,1,1,1,1" points="74.88,35.6221 521.28,35.6221"/>
<polyline fill="none" stroke="#262626" stroke-width="0.5" stroke-linecap="butt" stroke-linejoin="miter" stroke-opacity="0.15" stroke-dasharray="16,0" points="74.88,384.48 521.28,384.48"/>
<polyline fill="none" stroke="#262626" stroke-width="0.5" stroke-linecap="butt" stroke-linejoin="miter" stroke-opacity="0.15" stroke-dasharray="16,0" points="74.88,314.064 521.28,314.064"/>
<polyline fill="none" stroke="#262626" stroke-width="0.5" stroke-linecap="butt" stroke-linejoin="miter" stroke-opacity="0.15" stroke-dasharray="16,0" points="74.88,243.648 521.28,243.648"/>
<polyline fill="none" stroke="#262626" stroke-width="0.5" stroke-linecap="butt" stroke-linejoin="miter" stroke-opacity="0.15" stroke-dasharray="16,0" points="74.88,173.232 521.28,173.232"/>
<polyline fill="none" stroke="#262626" stroke-width="0.5" stroke-linecap="butt" stroke-linejoin="miter" stroke-opacity="0.15" stroke-dasharray="16,0" points="74.88,102.816 521.28,102.816"/>
<polyline fill="none" stroke="#262626" stroke-width="0.5" stroke-linecap="butt" stroke-linejoin="miter" stroke-opacity="0.15" stroke-dasharray="16,0" points="74.88,32.4 521.28,32.4"/>
<polyline fill="none" stroke="#262626" stroke-width="0.5" stroke-linecap="butt" stroke-linejoin="miter" points="74.88,363.283 77.114,363.283"/>
<polyline fill="none" stroke="#262626" stroke-width="0.5" stroke-linecap="butt" stroke-linejoin="miter" points="521.28,363.283 519.046,363.283"/>
<polyline fill="none" stroke="#262626" stroke-width="0.5" stroke-linecap="butt" stroke-linejoin="miter" points="74.88,350.883 77.114,350.883"/>
<polyline fill="none" stroke="#262626" stroke-width="0.5" stroke-linecap="butt" stroke-linejoin="miter" points="521.28,350.883 519.046,350.883"/>
<polyline fill="none" stroke="#262626" stroke-width="0.5" stroke-linecap="butt" stroke-linejoin="miter" points="74.88,342.085 77.114,342.085"/>
<polyline fill="none" stroke="#262626" stroke-width="0.5" stroke-linecap="butt" stroke-linejoin="miter" points="521.28,342.085 519.046,342.085"/>
<polyline fill="none" stroke="#262626" stroke-width="0.5" stroke-linecap="butt" stroke-linejoin="miter" points="74.88,335.261 77.114,335.261"/>
<polyline fill="none" stroke="#262626" stroke-width="0.5" stroke-linecap="butt" stroke-linejoin="miter" points="521.28,335.261 519.046,335.261"/>
<polyline fill="none" stroke="#262626" stroke-width="0.5" stroke-linecap="butt" stroke-linejoin="miter" points="74.88,329.686 77.114,329.686"/>
<polyline fill="none" stroke="#262626" stroke-width="0.5" stroke-linecap="butt" stroke-linejoin="miter" points="521.28,329.686 519.046,329.686"/>
<polyline fill="none" stroke="#262626" stroke-width="0.5" stroke-linecap="butt" stroke-linejoin="miter" points="74.88,324.972 77.114,324.972"/>
<polyline fill="none" stroke="#262626" stroke-width="0.5" stroke-linecap="butt" stroke-linejoin="miter" points="521.28,324.972 519.046,324.972"/>
<polyline fill="none" stroke="#262626" stroke-width="0.5" stroke-linecap="butt" stroke-linejoin="miter" points="74.88,320.888 77.114,320.888"/>
<polyline fill="none" stroke="#262626" stroke-width="0.5" stroke-linecap="butt" stroke-linejoin="miter" points="521.28,320.888 519.046,320.888"/>
<polyline fill="none" stroke="#262626" stroke-width="0.5" stroke-linecap="butt" stroke-linejoin="miter" points="74.88,317.286 77.114,317.286"/>
<polyline fill="none" stroke="#262626" stroke-width="0.5" stroke-linecap="butt" stroke-linejoin="miter" points="521.28,317.286 519.046,317.286"/>
<polyline fill="none" stroke="#262626" stroke-width="0.5" stroke-linecap="butt" stroke-linejoin="miter" points="74.88,292.867 77.114,292.867"/>
<polyline fill="none" stroke="#262626" stroke-width="0.5" stroke-linecap="butt" stroke-linejoin="miter" points="521.28,292.867 519.046,292.867"/>
<polyline fill="none" stroke="#262626" stroke-width="0.5" stroke-linecap="butt" stroke-linejoin="miter" points="74.88,280.467 77.114,280.467"/>
<polyline fill="none" stroke="#262626" stroke-width="0.5" stroke-linecap="butt" stroke-linejoin="miter" points="521.28,280.467 519.046,280.467"/>
<polyline fill="none" stroke="#262626" stroke-width="0.5" stroke-linecap="butt" stroke-linejoin="miter" points="74.88,271.669 77.114,271.669"/>
<polyline fill="none" stroke="#262626" stroke-width="0.5" stroke-linecap="butt" stroke-linejoin="miter" points="521.28,271.669 519.046,271.669"/>
<polyline fill="none" stroke="#262626" stroke-width="0.5" stroke-linecap="butt" stroke-linejoin="miter" points="74.88,264.845 77.114,264.845"/>
<polyline fill="none" stroke="#262626" stroke-width="0.5" stroke-linecap="butt" stroke-linejoin="miter" points="521.28,264.845 519.046,264.845"/>
<polyline fill="none" stroke="#262626" stroke-width="0.5" stroke-linecap="butt" stroke-linejoin="miter" points="74.88,259.27 77.114,259.27"/>
<polyline fill="none" stroke="#262626" stroke-width="0.5" stroke-linecap="butt" stroke-linejoin="miter" points="521.28,259.27 519.046,259.27"/>
<polyline fill="none" stroke="#262626" stroke-width="0.5" stroke-linecap="butt" stroke-linejoin="miter" points="74.88,254.556 77.114,254.556"/>
<polyline fill="none" stroke="#262626" stroke-width="0.5" stroke-linecap="butt" stroke-linejoin="miter" points="521.28,254.556 519.046,254.556"/>
<polyline fill="none" stroke="#262626" stroke-width="0.5" stroke-linecap="butt" stroke-linejoin="miter" points="74.88,250.472 77.114,250.472"/>
<polyline fill="none" stroke="#262626" stroke-width="0.5" stroke-linecap="butt" stroke-linejoin="miter" points="521.28,250.472 519.046,250.472"/>
<polyline fill="none" stroke="#262626" stroke-width="0.5" stroke-linecap="butt" stroke-linejoin="miter" points="74.88,246.87 77.114,246.87"/>
<polyline fill="none" stroke="#262626" stroke-width="0.5" stroke-linecap="butt" stroke-linejoin="miter" points="521.28,246.87 519.046,246.87"/>
<polyline fill="none" stroke="#262626" stroke-width="0.5" stroke-linecap="butt" stroke-linejoin="miter" points="74.88,222.451 77.114,222.451"/>
<polyline fill="none" stroke="#262626" stroke-width="0.5" stroke-linecap="butt" stroke-linejoin="miter" points="521.28,222.451 519.046,222.451"/>
<polyline fill="none" stroke="#262626" stroke-width="0.5" stroke-linecap="butt" stroke-linejoin="miter" points="74.88,210.051 77.114,210.051"/>
<polyline fill="none" stroke="#262626" stroke-width="0.5" stroke-linecap="butt" stroke-linejoin="miter" points="521.28,210.051 519.046,210.051"/>
<polyline fill="none" stroke="#262626" stroke-width="0.5" stroke-linecap="butt" stroke-linejoin="miter" points="74.88,201.253 77.114,201.253"/>
<polyline fill="none" stroke="#262626" stroke-width="0.5" stroke-linecap="butt" stroke-linejoin="miter" points="521.28,201.253 519.046,201.253"/>
<polyline fill="none" stroke="#262626" stroke-width="0.5" stroke-linecap="butt" stroke-linejoin="miter" points="74.88,194.429 77.114,194.429"/>
<polyline fill="none" stroke="#262626" stroke-width="0.5" stroke-linecap="butt" stroke-linejoin="miter" points="521.28,194.429 519.046,194.429"/>
<polyline fill="none" stroke="#262626" stroke-width="0.5" stroke-linecap="butt" stroke-linejoin="miter" points="74.88,188.854 77.114,188.854"/>
<polyline fill="none" stroke="#262626" stroke-width="0.5" stroke-linecap="butt" stroke-linejoin="miter" points="521.28,188.854 519.046,188.854"/>
<polyline fill="none" stroke="#262626" stroke-width="0.5" stroke-linecap="butt" stroke-linejoin="miter" points="74.88,184.14 77.114,184.14"/>
<polyline fill="none" stroke="#262626" stroke-width="0.5" stroke-linecap="butt" stroke-linejoin="miter" points="521.28,184.14 519.046,184.14"/>
<polyline fill="none" stroke="#262626" stroke-width="0.5" stroke-linecap="butt" stroke-linejoin="miter" points="74.88,180.056 77.114,180.056"/>
<polyline fill="none" stroke="#262626" stroke-width="0.5" stroke-linecap="butt" stroke-linejoin="miter" points="521.28,180.056 519.046,180.056"/>
<polyline fill="none" stroke="#262626" stroke-width="0.5" stroke-linecap="butt" stroke-linejoin="miter" points="74.88,176.454 77.114,176.454"/>
<polyline fill="none" stroke="#262626" stroke-width="0.5" stroke-linecap="butt" stroke-linejoin="miter" points="521.28,176.454 519.046,176.454"/>
<polyline fill="none" stroke="#262626" stroke-width="0.5" stroke-linecap="butt" stroke-linejoin="miter" points="74.88,152.035 77.114,152.035"/>
<polyline fill="none" stroke="#262626" stroke-width="0.5" stroke-linecap="butt" stroke-linejoin="miter" points="521.28,152.035 519.046,152.035"/>
<polyline fill="none" stroke="#262626" stroke-width="0.5" stroke-linecap="butt" stroke-linejoin="miter" points="74.88,139.635 77.114,139.635"/>
<polyline fill="none" stroke="#262626" stroke-width="0.5" stroke-linecap="butt" stroke-linejoin="miter" points="521.28,139.635 519.046,139.635"/>
<polyline fill="none" stroke="#262626" stroke-width="0.5" stroke-linecap="butt" stroke-linejoin="miter" points="74.88,130.837 77.114,130.837"/>
<polyline fill="none" stroke="#262626" stroke-width="0.5" stroke-linecap="butt" stroke-linejoin="miter" points="521.28,130.837 519.046,130.837"/>
<polyline fill="none" stroke="#262626" stroke-width="0.5" stroke-linecap="butt" stroke-linejoin="miter" points="74.88,124.013 77.114,124.013"/>
<polyline fill="none" stroke="#262626" stroke-width="0.5" stroke-linecap="butt" stroke-linejoin="miter" points="521.28,124.013 519.046,124.013"/>
<polyline fill="none" stroke="#262626" stroke-width="0.5" stroke-linecap="butt" stroke-linejoin="miter" points="74.88,118.438 77.114,118.438"/>
<polyline fill="none" stroke="#262626" stroke-width="0.5" stroke-linecap="butt" stroke-linejoin="miter" points="521.28,118.438 519.046,118.438"/>
<polyline fill="none" stroke="#262626" stroke-width="0.5" stroke-linecap="butt" stroke-linejoin="miter" points="74.88,113.724 77.114,113.724"/>
<polyline fill="none" stroke="#262626" stroke-width="0.5" stroke-linecap="butt" stroke-linejoin="miter" points="521.28,113.724 519.046,113.724"/>
<polyline fill="none" stroke="#262626" stroke-width="0.5" stroke-linecap="butt" stroke-linejoin="miter" points="74.88,109.64 77.114,109.64"/>
<polyline fill="none" stroke="#262626" stroke-width="0.5" stroke-linecap="butt" stroke-linejoin="miter" points="521.28,109.64 519.046,109.64"/>
<polyline fill="none" stroke="#262626" stroke-width="0.5" stroke-linecap="butt" stroke-linejoin="miter" points="74.88,106.038 77.114,106.038"/>
<polyline fill="none" stroke="#262626" stroke-width="0.5" stroke-linecap="butt" stroke-linejoin="miter" points="521.28,106.038 519.046,106.038"/>
<polyline fill="none" stroke="#262626" stroke-width="0.5" stroke-linecap="butt" stroke-linejoin="miter" points="74.88,81.6187 77.114,81.6187"/>
<polyline fill="none" stroke="#262626" stroke-width="0.5" stroke-linecap="butt" stroke-linejoin="miter" points="521.28,81.6187 519.046,81.6187"/>
<polyline fill="none" stroke="#262626" stroke-width="0.5" stroke-linecap="butt" stroke-linejoin="miter" points="74.88,69.2191 77.114,69.2191"/>
<polyline fill="none" stroke="#262626" stroke-width="0.5" stroke-linecap="butt" stroke-linejoin="miter" points="521.28,69.2191 519.046,69.2191"/>
<polyline fill="none" stroke="#262626" stroke-width="0.5" stroke-linecap="butt" stroke-linejoin="miter" points="74.88,60.4214 77.114,60.4214"/>
<polyline fill="none" stroke="#262626" stroke-width="0.5" stroke-linecap="butt" stroke-linejoin="miter" points="521.28,60.4214 519.046,60.4214"/>
<polyline fill="none" stroke="#262626" stroke-width="0.5" stroke-linecap="butt" stroke-linejoin="miter" points="74.88,53.5974 77.114,53.5974"/>
<polyline fill="none" stroke="#262626" stroke-width="0.5" stroke-linecap="butt" stroke-linejoin="miter" points="521.28,53.5974 519.046,53.5974"/>
<polyline fill="none" stroke="#262626" stroke-width="0.5" stroke-linecap="butt" stroke-linejoin="miter" points="74.88,48.0217 77.114,48.0217"/>
<polyline fill="none" stroke="#262626" stroke-width="0.5" stroke-linecap="butt" stroke-linejoin="miter" points="521.28,48.0217 519.046,48.0217"/>
<polyline fill="none" stroke="#262626" stroke-width="0.5" stroke-linecap="butt" stroke-linejoin="miter" points="74.88,43.3076 77.114,43.3076"/>
<polyline fill="none" stroke="#262626" stroke-width="0.5" stroke-linecap="butt" stroke-linejoin="miter" points="521.28,43.3076 519.046,43.3076"/>
<polyline fill="none" stroke="#262626" stroke-width="0.5" stroke-linecap="butt" stroke-linejoin="miter" points="74.88,39.224 77.114,39.224"/>
<polyline fill="none" stroke="#262626" stroke-width="0.5" stroke-linecap="butt" stroke-linejoin="miter" points="521.28,39.224 519.046,39.224"/>
<polyline fill="none" stroke="#262626" stroke-width="0.5" stroke-linecap="butt" stroke-linejoin="miter" points="74.88,35.6221 77.114,35.6221"/>
<polyline fill="none" stroke="#262626" stroke-width="0.5" stroke-linecap="butt" stroke-linejoin="miter" points="521.28,35.6221 519.046,35.6221"/>
<polyline fill="none" stroke="#262626" stroke-width="0.5" stroke-linecap="butt" stroke-linejoin="miter" points="74.88,384.48 79.348,384.48"/>
<polyline fill="none" stroke="#262626" stroke-width="0.5" stroke-linecap="butt" stroke-linejoin="miter" points="521.28,384.48 516.812,384.48"/>
<polyline fill="none" stroke="#262626" stroke-width="0.5" stroke-linecap="butt" stroke-linejoin="miter" points="74.88,314.064 79.348,314.064"/>
<polyline fill="none" stroke="#262626" stroke-width="0.5" stroke-linecap="butt" stroke-linejoin="miter" points="521.28,314.064 516.812,314.064"/>
<polyline fill="none" stroke="#262626" stroke-width="0.5" stroke-linecap="butt" stroke-linejoin="miter" points="74.88,243.648 79.348,243.648"/>
<polyline fill="none" stroke="#262626" stroke-width="0.5" stroke-linecap="butt" stroke-linejoin="miter" points="521.28,243.648 516.812,243.648"/>
<polyline fill="none" stroke="#262626" stroke-width="0.5" stroke-linecap="butt" stroke-linejoin="miter" points="74.88,173.232 79.348,173.232"/>
<polyline fill="none" stroke="#262626" stroke-width="0.5" stroke-linecap="butt" stroke-linejoin="miter" points="521.28,173.232 516.812,173.232"/>
<polyline fill="none" stroke="#262626" stroke-width="0.5" stroke-linecap="butt" stroke-linejoin="miter" points="74.88,102.816 79.348,102.816"/>
<polyline fill="none" stroke="#262626" stroke-width="0.5" stroke-linecap="butt" stroke-linejoin="miter" points="521.28,102.816 516.812,102.816"/>
<polyline fill="none" stroke="#262626" stroke-width="0.5" stroke-linecap="butt" stroke-linejoin="miter" points="74.88,32.4 79.348,32.4"/>
<polyline fill="none" stroke="#262626" stroke-width="0.5" stroke-linecap="butt" stroke-linejoin="miter" points="521.28,32.4 516.812,32.4"/>
<text fill="#262626" x="49.8755" y="390.98" font-size="10" text-anchor="start" dy="0" font-family="Helvetica">10</text>
<text fill="#262626" x="61.8755" y="384.98" font-size="8" text-anchor="start" dy="0" font-family="Helvetica">-5</text>
<text fill="#262626" x="49.8755" y="320.564" font-size="10" text-anchor="start" dy="0" font-family="Helvetica">10</text>
<text fill="#262626" x="61.8755" y="314.564" font-size="8" text-anchor="start" dy="0" font-family="Helvetica">-4</text>
<text fill="#262626" x="49.8755" y="250.148" font-size="10" text-anchor="start" dy="0" font-family="Helvetica">10</text>
<text fill="#262626" x="61.8755" y="244.148" font-size="8" text-anchor="start" dy="0" font-family="Helvetica">-3</text>
<text fill="#262626" x="49.8755" y="179.732" font-size="10" text-anchor="start" dy="0" font-family="Helvetica">10</text>
<text fill="#262626" x="61.8755" y="173.732" font-size="8" text-anchor="start" dy="0" font-family="Helvetica">-2</text>
<text fill="#262626" x="49.8755" y="109.316" font-size="10" text-anchor="start" dy="0" font-family="Helvetica">10</text>
<text fill="#262626" x="61.8755" y="103.316" font-size="8" text-anchor="start" dy="0" font-family="Helvetica">-1</text>
<text fill="#262626" x="52.8755" y="38.9" font-size="10" text-anchor="start" dy="0" font-family="Helvetica">10</text>
<text fill="#262626" x="64.8755" y="32.9" font-size="8" text-anchor="start" dy="0" font-family="Helvetica">0</text>
<polyline fill="none" stroke="#262626" stroke-width="0.5" stroke-linecap="butt" stroke-linejoin="miter" stroke-dasharray="16,0" points="74.88,384.48 521.28,384.48"/>
<polyline fill="none" stroke="#262626" stroke-width="0.5" stroke-linecap="butt" stroke-linejoin="miter" stroke-dasharray="16,0" points="74.88,32.4 521.28,32.4"/>
<polyline fill="none" stroke="#262626" stroke-width="0.5" stroke-linecap="butt" stroke-linejoin="miter" stroke-dasharray="16,0" points="74.88,384.48 74.88,32.4"/>
<polyline fill="none" stroke="#262626" stroke-width="0.5" stroke-linecap="butt" stroke-linejoin="miter" stroke-dasharray="16,0" points="521.28,384.48 521.28,32.4"/>
<text fill="#262626" x="298.08" y="402.481" font-size="11" text-anchor="middle" dy="11" font-family="Helvetica">number of registered meetup participants</text>
<text fill="#262626" x="45.8755" y="208.44" font-size="11" transform="rotate(-90, 45.8755, 208.44)" text-anchor="middle" dy="0" font-family="Helvetica">probability to suffer</text>
<polyline fill="none" stroke="#0071bc" stroke-width="2" stroke-linecap="butt" stroke-linejoin="miter" points="119.52,174.217 164.16,156.177 208.8,220.17 253.44,204.486 298.08,266.526 342.72,251.394 387.36,312.31 432,297.459 476.64,357.642 521.28,342.973"/>
<polyline fill="none" stroke="#d85218" stroke-width="2" stroke-linecap="butt" stroke-linejoin="miter" points="119.52,136.41 164.16,118.045 208.8,162.475 253.44,147.659 298.08,190.184 342.72,176.191 387.36,217.602 432,203.972 476.64,244.648 521.28,231.244"/>
<polyline fill="none" stroke="#ecb01f" stroke-width="2" stroke-linecap="butt" stroke-linejoin="miter" points="119.52,103.19 164.16,84.4813 208.8,110.952 253.44,97.493 298.08,122.172 342.72,110.198 387.36,133.808 432,122.459 476.64,145.346 521.28,134.346"/>
<polyline fill="none" stroke="#7d2e8d" stroke-width="2" stroke-linecap="butt" stroke-linejoin="miter" points="119.52,79.1436 164.16,60.709 208.8,72.3652 253.44,60.8356 298.08,70.9326 342.72,61.9377 387.36,71.1232 432,63.387 476.64,71.9467 521.28,64.9448"/>
<polyline fill="none" stroke="#76ab2f" stroke-width="2" stroke-linecap="butt" stroke-linejoin="miter" points="119.52,72.6931 164.16,55.4713 208.8,61.0335 253.44,51.1662 298.08,55.3558 342.72,48.4097 387.36,51.8535 432,46.4802 476.64,49.4426 521.28,45.0516"/>
</g>
<clipPath id="cp00576432">
  <polygon points="0,432 576,432 576,0 0,0"/>
</clipPath>
<g clip-path="url(#cp00576432)">
<polygon fill="#ffffff" shape-rendering="crispEdges" points="468.052,115.759 518.53,115.759 468.052,35.1503"/>
<polygon fill="#ffffff" shape-rendering="crispEdges" points="518.53,115.759 518.53,35.1503 468.052,35.1503"/>
<polyline fill="none" stroke="#262626" stroke-width="0.5" stroke-linecap="butt" stroke-linejoin="miter" stroke-dasharray="16,0" points="468.052,115.759 518.53,115.759"/>
<polyline fill="none" stroke="#262626" stroke-width="0.5" stroke-linecap="butt" stroke-linejoin="miter" stroke-dasharray="16,0" points="468.052,35.1503 518.53,35.1503"/>
<polyline fill="none" stroke="#262626" stroke-width="0.5" stroke-linecap="butt" stroke-linejoin="miter" stroke-dasharray="16,0" points="468.052,115.759 468.052,35.1503"/>
<polyline fill="none" stroke="#262626" stroke-width="0.5" stroke-linecap="butt" stroke-linejoin="miter" stroke-dasharray="16,0" points="518.53,115.759 518.53,35.1503"/>
<text fill="#000000" x="494.179" y="43.2112" font-size="10" text-anchor="start" dy="5" font-family="Helvetica">0.05</text>
<text fill="#000000" x="494.179" y="59.3329" font-size="10" text-anchor="start" dy="5" font-family="Helvetica"> 0.1</text>
<text fill="#000000" x="494.179" y="75.4546" font-size="10" text-anchor="start" dy="5" font-family="Helvetica"> 0.2</text>
<text fill="#000000" x="494.179" y="91.5764" font-size="10" text-anchor="start" dy="5" font-family="Helvetica"> 0.4</text>
<text fill="#000000" x="494.179" y="107.698" font-size="10" text-anchor="start" dy="5" font-family="Helvetica"> 0.6</text>
<polyline fill="none" stroke="#0071bc" stroke-width="2" stroke-linecap="butt" stroke-linejoin="miter" points="470.802,43.2112 491.429,43.2112"/>
<polyline fill="none" stroke="#d85218" stroke-width="2" stroke-linecap="butt" stroke-linejoin="miter" points="470.802,59.3329 491.429,59.3329"/>
<polyline fill="none" stroke="#ecb01f" stroke-width="2" stroke-linecap="butt" stroke-linejoin="miter" points="470.802,75.4546 491.429,75.4546"/>
<polyline fill="none" stroke="#7d2e8d" stroke-width="2" stroke-linecap="butt" stroke-linejoin="miter" points="470.802,91.5764 491.429,91.5764"/>
<polyline fill="none" stroke="#76ab2f" stroke-width="2" stroke-linecap="butt" stroke-linejoin="miter" points="470.802,107.698 491.429,107.698"/>
<text fill="#000000" x="493.291" y="25.1503" font-size="10" text-anchor="middle" dy="0" font-family="Helvetica">malicious</text>
</g>
</g>
</svg>
